<?xml version="1.0" encoding="UTF-8"?>
<svg id="Layer_1" data-name="Layer 1" xmlns="http://www.w3.org/2000/svg" viewBox="0 0 2528.45 2528.45">
  <defs>
    <style>
      .cls-1 {
        fill: #fff300;
      }

      .cls-2 {
        fill: none;
        stroke: #231f20;
        stroke-miterlimit: 10;
        stroke-width: 20px;
      }
    </style>
  </defs>
  <circle id="background" class="cls-1" cx="1264.22" cy="1264.22" r="1264.22"/>
  <g id="Hat">
    <line class="cls-2" x1="1266.68" y1="928.87" x2="1266.68" y2="1187.73"/>
    <line class="cls-2" x1="1396.17" y1="1013.73" x2="1365.32" y2="1187.73"/>
    <line class="cls-2" x1="1135.22" y1="1013.73" x2="1166.08" y2="1187.73"/>
    <polygon class="cls-2" points="1495.43 876.66 1495.43 876.67 1459.36 1114.88 1445.57 1187.72 1087.79 1187.72 1074 1114.88 1037.93 876.67 1037.93 876.66 1145.82 789.15 1266.68 831.09 1387.54 789.15 1495.43 876.66"/>
    <rect class="cls-2" x="1085.39" y="1187.72" width="360.18" height="153"/>
  </g>
  <rect x="1117.73" y="1399.41" width="297.9" height="58.91"/>
  <path d="m1426.61,1724.07c-43.31-1.01-91.24-33.56-141.78-83.87h-36.29c-50.54,50.31-98.47,82.86-141.78,83.87-68.17,0-68.17-221.92,0-221.92,52.91,11.03,100.49,39.43,141.78,88.32h36.29c41.29-48.89,88.87-77.29,141.78-88.32,68.17,0,68.17,221.92,0,221.92Z"/>
</svg>